<?xml version="1.0" encoding="UTF-8" standalone="no"?>
<!-- Generator: Adobe Illustrator 19.1.1, SVG Export Plug-In . SVG Version: 6.00 Build 0)  -->

<svg
   xmlns:dc="http://purl.org/dc/elements/1.1/"
   xmlns:cc="http://creativecommons.org/ns#"
   xmlns:rdf="http://www.w3.org/1999/02/22-rdf-syntax-ns#"
   xmlns:svg="http://www.w3.org/2000/svg"
   xmlns="http://www.w3.org/2000/svg"
   xmlns:sodipodi="http://sodipodi.sourceforge.net/DTD/sodipodi-0.dtd"
   xmlns:inkscape="http://www.inkscape.org/namespaces/inkscape"
   version="1.1"
   x="0px"
   y="0px"
   viewBox="0 0 48 48"
   enable-background="new 0 0 48 48"
   xml:space="preserve"
   id="svg4765"
   sodipodi:docname="image-upload-placeholder.svg"
   inkscape:export-filename="/home/ross/Documents/honey_pie/node/mysql/diode/app/public/assets/images/media/image-upload-placeholder.png"
   inkscape:export-xdpi="800"
   inkscape:export-ydpi="800"
   inkscape:version="0.92.2 2405546, 2018-03-11"><metadata
   id="metadata4771"><rdf:RDF><cc:Work
       rdf:about=""><dc:format>image/svg+xml</dc:format><dc:type
         rdf:resource="http://purl.org/dc/dcmitype/StillImage" /></cc:Work></rdf:RDF></metadata><defs
   id="defs4769"><clipPath
     clipPathUnits="userSpaceOnUse"
     id="clipPath5390"><rect
       style="fill:#ffffff;fill-opacity:1;stroke:#ffffff;stroke-width:0.99521762;stroke-linecap:round;stroke-miterlimit:4;stroke-dasharray:none;stroke-opacity:1"
       id="rect5392"
       width="833.02441"
       height="585.84192"
       x="82.969978"
       y="204.67062" /></clipPath></defs><sodipodi:namedview
   pagecolor="#ffffff"
   bordercolor="#666666"
   borderopacity="1"
   objecttolerance="10"
   gridtolerance="10"
   guidetolerance="10"
   inkscape:pageopacity="0"
   inkscape:pageshadow="2"
   inkscape:window-width="1680"
   inkscape:window-height="1026"
   id="namedview4767"
   showgrid="false"
   inkscape:zoom="13.906433"
   inkscape:cx="23.674466"
   inkscape:cy="29.65591"
   inkscape:window-x="1280"
   inkscape:window-y="24"
   inkscape:window-maximized="0"
   inkscape:current-layer="svg4765" />
<g
   id="g4761"
   inkscape:export-xdpi="800"
   inkscape:export-ydpi="800">
	<path
   fill="#B3E5FC"
   d="M34.4,43H13.6C8.9,43,5,39.1,5,34.4V13.6C5,8.9,8.9,5,13.6,5h20.7c4.8,0,8.6,3.9,8.6,8.6v20.7   C43,39.1,39.1,43,34.4,43z"
   id="path4759" />
</g>
<path
   fill="#03A9F4"
   d="M43,16h-2v6h2V16z M43,26h-2v6h2V26z M7,16H5v6h2V16z M7,26H5v6h2V26z M16,7h6V5h-6V7z M26,7h6V5h-6V7z   M16,43h6v-2h-6V43z M27,43h6v-2h-6V43z M12,42.8c-3.5-0.7-6.2-3.4-6.8-6.8h2.1c0.6,2.4,2.4,4.2,4.8,4.8V42.8z M12,5.2v2.1  C9.6,7.8,7.8,9.6,7.2,12H5.2C5.8,8.5,8.5,5.8,12,5.2z M36,7.2V5.2c3.5,0.7,6.2,3.4,6.8,6.8h-2.1C40.2,9.6,38.4,7.8,36,7.2z M40.8,36  h2.1c-0.7,3.5-3.4,6.2-6.8,6.8v-2.1C38.4,40.2,40.2,38.4,40.8,36z"
   id="path4763" />
<g
   id="g4819"
   transform="matrix(0.02612494,0,0,0.02612494,10.951058,10.873331)"
   style="fill:#ffffff;fill-opacity:1;stroke:#ffffff;stroke-opacity:1;stroke-width:0.9952176;stroke-miterlimit:4;stroke-dasharray:none"><path
     d="M 881.1,132.5 H 118.9 C 59,132.5 10,181.5 10,241.4 v 517.3 c 0,59.9 49,108.9 108.9,108.9 H 881.1 C 941,867.6 990,818.6 990,758.7 V 241.4 C 990,181.5 941,132.5 881.1,132.5 Z m 68.1,614.8 c 0,54.9 -24.5,79.4 -79.4,79.4 H 130.3 c -54.9,0 -79.4,-24.5 -79.4,-79.4 V 252.7 c 0,-54.9 24.5,-79.4 79.4,-79.4 h 739.5 c 54.9,0 79.4,24.5 79.4,79.4 z M 316.3,418.3 418.3,500 683.7,275.4 887.9,459.2 V 765.5 H 112.1 V 581.7 Z M 193.8,234.6 c -45.1,0 -81.7,36.6 -81.7,81.7 0,45.1 36.6,81.7 81.7,81.7 45.1,0 81.7,-36.6 81.7,-81.7 0,-45.1 -36.6,-81.7 -81.7,-81.7 z"
     id="path4817"
     inkscape:connector-curvature="0"
     style="fill:#03a9f4;fill-opacity:1;stroke:#ffffff;stroke-width:0.99521762;stroke-miterlimit:4;stroke-dasharray:none;stroke-opacity:1"
     clip-path="url(#clipPath5390)"
     transform="translate(-4.734838e-6,4.8658004)" /></g></svg>